:SAMPLES-PER-SECOND 30
:FULLY-SPECIFIED
:DEGREES
275
root  10.3803 29.6304 -63.4086 27.5643 22.7073 -2.57879
RightUpLeg  -72.2115 -0.498249 8.523
RightLeg  78.0363 14.5571 -9.56123
RightFoot  -36.4302 0.423423 1.4593
RightToes  -5.82073e-011 -3.18055e-015 -2.98177e-016
Spine  35.66 -0.377294 5.14739
Spine1  -1.45897 -0.334224 -0.0722394
HEad  -40.0051 -9.13691 8.79387
LeftShoulder1  -3.88251e-019 9.70628e-020 -3.87848e-018
LeftArm  -20.838 53.5551 -60.5337
LeftForeArm  9.47967 -0.487895 -2.86115
LeftHand  -0.181167 1.30322 5.63418
RightShoulder  7.83159 10.7323 36.6027
RightArm  0.919981 -34.2987 21.9877
RightForeArm  20.4379 6.87438 -3.70028
RightHand  -1.48289 4.49064 -17.201
LeftUpLeg  -70.1326 4.60747 -5.17935
LeftLeg  77.2381 -10.0729 24.3822
LeftFoot  -36.2256 -2.20456 -10.2655
LeftToes  1.2018e-011 -3.94675e-011 -1.33631e-011
276
root  10.9093 29.6593 -62.7977 26.3986 22.2469 -2.78845
RightUpLeg  -69.672 -0.68733 8.09652
RightLeg  78.3826 14.5799 -9.80331
RightFoot  -37.2383 0.639731 2.41033
RightToes  -5.82073e-011 -3.18055e-015 -2.98177e-016
Spine  35.3759 -0.291116 5.40359
Spine1  -3.00127 -0.178332 0.616292
HEad  -40.0243 -8.0222 8.26426
LeftShoulder1  -3.88251e-019 9.70628e-020 -3.87848e-018
LeftArm  -21.4359 35.9982 -61.6845
LeftForeArm  7.83903 -1.03198 -3.16677
LeftHand  -0.25796 1.49417 8.46733
RightShoulder  7.4363 10.5811 34.9544
RightArm  -1.40186 -18.7347 34.4945
RightForeArm  15.2476 8.93531 -3.64649
RightHand  -1.93133 5.93026 -19.5683
LeftUpLeg  -67.1238 5.37796 -5.63471
LeftLeg  77.3169 -10.1048 24.4121
LeftFoot  -37.9899 -2.43122 -10.5144
LeftToes  1.2018e-011 -3.94675e-011 -1.33631e-011
277
root  11.4628 29.8346 -62.0908 25.3885 22.1012 -2.72303
RightUpLeg  -66.5805 -1.5429 7.88896
RightLeg  78.0028 14.4427 -10.3792
RightFoot  -38.1888 0.780625 2.93123
RightToes  -5.82073e-011 -3.18055e-015 -2.98177e-016
Spine  35.3094 -0.595375 6.73974
Spine1  -5.38253 0.25114 -0.771912
HEad  -41.2334 -7.39177 9.13159
LeftShoulder1  -3.88251e-019 9.70628e-020 -3.87848e-018
LeftArm  -20.0856 17.7993 -61.9464
LeftForeArm  2.0746 -4.67834 -3.49534
LeftHand  -0.410781 -0.526565 8.81807
RightShoulder  6.47939 10.2103 30.7769
RightArm  1.43398 -5.49253 44.9935
RightForeArm  3.74697 15.3693 -6.17814
RightHand  -2.68218 7.68518 -23.3624
LeftUpLeg  -63.4673 6.16489 -6.26881
LeftLeg  76.693 -9.9041 23.8248
LeftFoot  -39.9436 -2.69087 -10.781
LeftToes  1.2018e-011 -3.94675e-011 -1.33631e-011
278
root  12.0364 30.2897 -61.2854 24.0946 22.2987 -2.57828
RightUpLeg  -62.143 -2.98655 7.83079
RightLeg  76.4606 14.1937 -10.3155
RightFoot  -39.2227 0.982641 3.67087
RightToes  -5.82073e-011 -3.18055e-015 -2.98177e-016
Spine  35.7267 -0.836143 8.42515
Spine1  -8.12062 0.888382 -2.87902
HEad  -43.3619 -7.84238 11.0911
LeftShoulder1  -3.88251e-019 9.70628e-020 -3.87848e-018
LeftArm  -17.6408 -0.18411 -63.0527
LeftForeArm  -5.94098 -11.7568 -2.58384
LeftHand  -0.518025 -2.2474 8.46189
RightShoulder  5.0593 9.63042 24.1056
RightArm  6.56881 5.61696 52.1907
RightForeArm  -13.1299 23.8351 -12.284
RightHand  -3.9768 9.13478 -30.8272
LeftUpLeg  -58.5752 6.99201 -6.68669
LeftLeg  74.6 -9.12798 23.0287
LeftFoot  -41.3767 -2.92883 -11.1418
LeftToes  1.2018e-011 -3.94675e-011 -1.33631e-011
279
root  12.6795 31.1456 -60.2749 22.6854 23.0134 -2.74712
RightUpLeg  -56.404 -4.472 7.73578
RightLeg  72.9771 13.7134 -9.73724
RightFoot  -38.6213 1.21365 4.80292
RightToes  -5.82073e-011 -3.18055e-015 -2.98177e-016
Spine  35.677 -0.494541 9.38665
Spine1  -10.2366 1.55057 -3.04026
HEad  -44.8073 -7.84719 12.9891
LeftShoulder1  -3.88251e-019 9.70628e-020 -3.87848e-018
LeftArm  -11.181 -16.1767 -64.2862
LeftForeArm  -14.7301 -20.6149 0.375016
LeftHand  -0.643042 -2.72564 9.84397
RightShoulder  3.51926 8.81208 16.3506
RightArm  2.81353 15.5679 53.9675
RightForeArm  -23.0903 34.3194 -17.623
RightHand  -5.58801 10.4745 -39.1775
LeftUpLeg  -52.6193 7.55721 -6.32916
LeftLeg  70.4101 -7.5594 22.1338
LeftFoot  -41.2788 -2.90657 -11.09
LeftToes  1.2018e-011 -3.94675e-011 -1.33631e-011
280
root  13.4867 32.274 -58.8863 21.7337 24.0526 -3.14718
RightUpLeg  -49.9489 -6.04796 7.58038
RightLeg  67.9696 13.0705 -9.0847
RightFoot  -36.3392 1.24506 5.46611
RightToes  -5.82073e-011 -3.18055e-015 -2.98177e-016
Spine  35.3325 0.153298 9.48949
Spine1  -13.322 2.07396 -1.48891
HEad  -44.2024 -6.26542 14.0754
LeftShoulder1  -3.88251e-019 9.70628e-020 -3.87848e-018
LeftArm  -0.900691 -27.4866 -64.5168
LeftForeArm  -21.4467 -31.3361 6.01084
LeftHand  -0.83916 -3.37456 11.8538
RightShoulder  2.07778 7.81487 8.43256
RightArm  -3.4025 23.2763 50.9956
RightForeArm  -31.4491 44.4466 -24.6733
RightHand  -6.91628 11.5229 -44.903
LeftUpLeg  -46.0038 7.87532 -5.53481
LeftLeg  64.7301 -5.75203 20.4221
LeftFoot  -39.9775 -2.69523 -10.7806
LeftToes  1.2018e-011 -3.94675e-011 -1.33631e-011
281
root  14.5254 33.6693 -57.1136 20.7856 24.5631 -3.4344
RightUpLeg  -42.0028 -8.67994 7.12209
RightLeg  61.7365 13.2346 -6.51398
RightFoot  -33.2583 1.07866 5.41252
RightToes  -5.82073e-011 -3.18055e-015 -2.98177e-016
Spine  35.4375 0.551596 9.81744
Spine1  -18.3639 2.59738 -1.2368
HEad  -41.7162 -5.21484 14.2337
LeftShoulder1  -3.88251e-019 9.70628e-020 -3.87848e-018
LeftArm  -0.0855828 -34.9306 -61.1046
LeftForeArm  -18.3089 -44.2172 10.0869
LeftHand  -1.11116 -5.00858 13.1166
RightShoulder  0.862718 6.85251 0.878759
RightArm  -11.9162 25.7798 45.2234
RightForeArm  -36.8165 52.6897 -33.3061
RightHand  -7.73116 12.2549 -47.7516
LeftUpLeg  -37.7696 8.9687 -4.9435
LeftLeg  57.4266 -4.24298 17.3921
LeftFoot  -37.0032 -2.50633 -11.3339
LeftToes  1.2018e-011 -3.94675e-011 -1.33631e-011
282
root  15.881 35.699 -54.9238 18.9926 23.9805 -3.44691
RightUpLeg  -30.7957 -12.8357 5.23952
RightLeg  51.9168 16.031 -0.800976
RightFoot  -26.0498 0.792539 6.48251
RightToes  -5.82073e-011 -3.18055e-015 -2.98177e-016
Spine  33.7237 0.77813 10.9669
Spine1  -20.444 3.23177 -3.11823
HEad  -37.3031 -6.12823 13.6831
LeftShoulder1  -3.88251e-019 9.70628e-020 -3.87848e-018
LeftArm  -1.44479 -37.5633 -56.2895
LeftForeArm  -21.5537 -57.6805 16.9835
LeftHand  -1.7679 -7.71735 16.2045
RightShoulder  -0.102582 5.02542 -5.53096
RightArm  -19.7787 23.6016 40.7558
RightForeArm  -42.0684 58.9376 -43.5527
RightHand  -7.98523 12.4773 -48.5828
LeftUpLeg  -26.1036 11.5417 -4.2759
LeftLeg  45.803 -2.96657 12.9554
LeftFoot  -28.432 -1.81369 -12.9159
LeftToes  1.2018e-011 -3.94675e-011 -1.33631e-011
283
root  17.6048 38.2161 -52.088 17.3826 22.8911 -2.94461
RightUpLeg  -17.4184 -17.7849 1.15824
RightLeg  37.0517 21.7466 4.03038
RightFoot  -9.93724 -0.318433 10.0193
RightToes  -5.82073e-011 -3.18055e-015 -2.98177e-016
Spine  26.2919 1.3781 11.8179
Spine1  -15.5504 3.88486 -4.82239
HEad  -27.345 -6.37429 13.5646
LeftShoulder1  -3.88251e-019 9.70628e-020 -3.87848e-018
LeftArm  -5.50849 -36.8432 -51.486
LeftForeArm  -34.3916 -69.2605 29.6016
LeftHand  -2.97516 -10.3776 22.4182
RightShoulder  -0.716166 1.73183 -9.84392
RightArm  -25.2528 20.2355 40.189
RightForeArm  -49.0333 63 -54.2741
RightHand  -7.97298 12.3477 -48.8258
LeftUpLeg  -12.3848 14.0816 -3.13729
LeftLeg  29.8037 -3.01304 7.64745
LeftFoot  -10.6592 0.281297 -14.4044
LeftToes  1.2018e-011 -3.94675e-011 -1.33631e-011
284
root  19.3977 40.3835 -48.8743 17.9695 22.235 -1.7633
RightUpLeg  -7.51895 -19.7032 -3.37752
RightLeg  22.9784 24.3605 3.85264
RightFoot  10.7331 -2.74851 12.907
RightToes  -5.82073e-011 -3.18055e-015 -2.98177e-016
Spine  14.536 2.43548 11.0766
Spine1  -10.8479 4.17505 -5.41766
HEad  -8.77085 -5.16037 14.1401
LeftShoulder1  -3.88251e-019 9.70628e-020 -3.87848e-018
LeftArm  -8.77832 -31.2922 -48.6575
LeftForeArm  -55.806 -76.1578 49.9858
LeftHand  -4.10038 -11.5577 28.5097
RightShoulder  -0.863465 -0.0994849 -11.3639
RightArm  -25.7587 15.7219 41.7831
RightForeArm  -53.7059 64.707 -60.7685
RightHand  -7.95768 12.1844 -49.1435
LeftUpLeg  -3.72372 13.284 -2.5754
LeftLeg  19.1264 -5.50319 4.04296
LeftFoot  11.055 3.33477 -15.3263
LeftToes  1.2018e-011 -3.94675e-011 -1.33631e-011
285
root  20.8728 41.9774 -46.0945 20.0177 22.241 -0.669392
RightUpLeg  -6.02827 -14.8676 -5.40459
RightLeg  22.3713 19.6584 2.27055
RightFoot  22.6393 -4.06977 12.2546
RightToes  -5.82073e-011 -3.18055e-015 -2.98177e-016
Spine  4.98896 2.65844 10.241
Spine1  -9.68876 3.64946 -5.68699
HEad  6.48239 -5.50517 11.6688
LeftShoulder1  -3.88251e-019 9.70628e-020 -3.87848e-018
LeftArm  -11.6041 -23.1153 -45.7952
LeftForeArm  -75.7058 -78.6424 69.4943
LeftHand  -4.43626 -11.0574 31.5538
RightShoulder  -0.967496 -1.56002 -12.7623
RightArm  -24.3174 11.6084 43.7647
RightForeArm  -55.357 65.1384 -62.6728
RightHand  -7.59869 11.5758 -48.6511
LeftUpLeg  -5.50478 9.37497 -3.14829
LeftLeg  25.7828 -8.60295 3.45357
LeftFoot  23.0933 5.3249 -16.0524
LeftToes  1.2018e-011 -3.94675e-011 -1.33631e-011
286
root  22.0067 43.13 -44.1119 19.8939 22.7046 -0.600916
RightUpLeg  -10.1533 -15.2977 -5.01811
RightLeg  40.4273 20.9749 4.03251
RightFoot  20.2967 -3.32165 10.6998
RightToes  -5.82073e-011 -3.18055e-015 -2.98177e-016
Spine  3.19183 2.02348 11.5737
Spine1  -11.5686 3.0809 -6.71025
HEad  16.1313 -4.88644 10.185
LeftShoulder1  -3.88251e-019 9.70628e-020 -3.87848e-018
LeftArm  -13.193 -13.9432 -43.0275
LeftForeArm  -93.2003 -79.3883 86.0473
LeftHand  -4.53623 -10.6324 33.0181
RightShoulder  -1.00054 -1.75415 -13.3431
RightArm  -22.2165 7.46435 40.8374
RightForeArm  -60.8183 66.0712 -67.0548
RightHand  -6.96272 10.6451 -47.339
LeftUpLeg  -12.5204 8.0285 -2.87262
LeftLeg  47.6208 -10.9016 4.25325
LeftFoot  23.015 5.12448 -15.4194
LeftToes  1.2018e-011 -3.94675e-011 -1.33631e-011
287
root  22.8912 43.7772 -42.6475 16.8358 23.1054 -0.659111
RightUpLeg  -13.8968 -15.2907 -5.45214
RightLeg  66.1268 20.1898 9.8839
RightFoot  11.4322 -2.26109 10.1094
RightToes  -5.82073e-011 -3.18055e-015 -2.98177e-016
Spine  6.5206 1.26823 12.2207
Spine1  -11.0008 2.96151 -7.42283
HEad  18.8714 -4.81574 9.83532
LeftShoulder1  -3.88251e-019 9.70628e-020 -3.87848e-018
LeftArm  -13.1388 -4.837 -41.1361
LeftForeArm  -113.07 -79.0991 104.512
LeftHand  -4.96825 -11.0443 35.1052
RightShoulder  -0.946385 -1.57975 -12.4229
RightArm  -20.7358 1.72002 32.7074
RightForeArm  -75.8215 67.8215 -80.7487
RightHand  -6.87052 10.4251 -47.3389
LeftUpLeg  -19.2837 7.95917 -1.98449
LeftLeg  73.431 -11.9946 7.3493
LeftFoot  19.7611 3.90296 -13.0136
LeftToes  1.2018e-011 -3.94675e-011 -1.33631e-011
288
root  23.7016 44.173 -41.3574 13.873 23.3499 -0.414009
RightUpLeg  -18.8314 -15.3942 -5.71921
RightLeg  89.8889 16.0332 12.9407
RightFoot  3.29177 -1.21895 8.14794
RightToes  -5.82073e-011 -3.18055e-015 -2.98177e-016
Spine  8.95443 0.697711 10.8574
Spine1  -5.84126 2.94293 -6.69697
HEad  16.9012 -4.92128 10.1531
LeftShoulder1  -3.88251e-019 9.70628e-020 -3.87848e-018
LeftArm  -11.4433 3.48376 -40.1165
LeftForeArm  -120.155 -78.641 111.502
LeftHand  -5.03692 -11.118 35.3821
RightShoulder  -0.799203 -1.64091 -9.99292
RightArm  -19.7647 -6.58336 23.4893
RightForeArm  -95.1092 67.9736 -99.6447
RightHand  -7.38758 10.8501 -49.3288
LeftUpLeg  -27.6377 6.84797 -1.57318
LeftLeg  96.6219 -14.8778 9.53419
LeftFoot  15.5281 2.27918 -8.65453
LeftToes  1.2018e-011 -3.94675e-011 -1.33631e-011
289
root  24.4561 44.2172 -40.2528 13.0468 22.827 0.215088
RightUpLeg  -28.2928 -15.835 -4.54841
RightLeg  109.405 13.5442 6.82855
RightFoot  -3.12452 -0.199159 2.10152
RightToes  -5.82073e-011 -3.18055e-015 -2.98177e-016
Spine  11.0991 0.219456 8.91986
Spine1  -1.17672 2.69691 -6.4347
HEad  12.1812 -4.25124 10.7263
LeftShoulder1  -3.88251e-019 9.70628e-020 -3.87848e-018
LeftArm  -8.59377 10.2329 -39.4641
LeftForeArm  -99.4938 -79.4411 92.4152
LeftHand  -4.1478 -10.3419 30.8415
RightShoulder  -0.492977 -0.667756 -6.00109
RightArm  -16.7865 -15.949 14.4544
RightForeArm  -106.687 66.9782 -111.241
RightHand  -7.47334 10.6648 -50.3278
LeftUpLeg  -40.0325 5.67703 -2.68578
LeftLeg  115.228 -18.3512 9.61585
LeftFoot  7.00637 0.436689 -2.19828
LeftToes  1.2018e-011 -3.94675e-011 -1.33631e-011
